<svg width="189" height="165" viewBox="0 0 189 165" xmlns="http://www.w3.org/2000/svg" xmlns:sketch="http://www.bohemiancoding.com/sketch/ns"><title>Shape</title><desc>Created with Sketch.</desc><path d="M82.688 47.879c-26.095 0-47.25 21.106-47.25 47.143s21.155 47.143 47.25 47.143 47.25-21.106 47.25-47.143-21.155-47.143-47.25-47.143zm0 88.393c-22.797 0-41.344-18.505-41.344-41.25s18.547-41.25 41.344-41.25 41.344 18.505 41.344 41.25-18.547 41.25-41.344 41.25zm67.922-88.393c-8.142 0-14.766 6.609-14.766 14.732s6.624 14.732 14.766 14.732 14.766-6.609 14.766-14.732-6.624-14.732-14.766-14.732zm0 23.571c-4.893 0-8.859-3.957-8.859-8.839 0-4.882 3.966-8.839 8.859-8.839s8.859 3.957 8.859 8.839c0 4.882-3.966 8.839-8.859 8.839zm14.766-47.879h-23.604l-.021-.021c-.013-12.989-10.606-23.551-23.625-23.551h-47.25c-13.02 0-23.613 10.563-23.625 23.551l-.021.021h-23.604c-13.027 0-23.625 10.575-23.625 23.571v94.286c0 12.997 10.598 23.571 23.625 23.571h141.75c13.027 0 23.625-10.575 23.625-23.571v-94.286c0-12.997-10.598-23.571-23.625-23.571zm-106.313.737c0-6.482 5.316-11.786 11.813-11.786h47.25c6.497 0 11.813 5.304 11.813 11.786v5.893h-70.875v-5.893zm118.125 117.857c0 6.482-5.316 11.786-11.813 11.786h-141.75c-6.497 0-11.813-5.304-11.813-11.786v-94.286c0-6.482 5.316-11.786 11.813-11.786h141.75c6.497 0 11.813 5.304 11.813 11.786v94.286z" sketch:type="MSShapeGroup" fill-opacity=".1" fill="#000"/></svg>