<svg width="100" height="100" viewBox="0 0 100 100" xmlns="http://www.w3.org/2000/svg" xmlns:sketch="http://www.bohemiancoding.com/sketch/ns"><title>Shape</title><desc>Created with Sketch.</desc><path d="M96.339 78.661l-24.994-24.994c2.343-4.895 3.655-10.378 3.655-16.167 0-20.711-16.79-37.5-37.5-37.5-20.711 0-37.5 16.789-37.5 37.5s16.789 37.5 37.5 37.5c5.788 0 11.271-1.313 16.167-3.655l24.994 24.994c2.44 2.441 5.64 3.661 8.839 3.661 3.199 0 6.398-1.22 8.839-3.661 4.882-4.882 4.882-12.796 0-17.678zm-90.089-41.161c0-17.231 14.019-31.25 31.25-31.25 17.232 0 31.25 14.019 31.25 31.25s-14.018 31.25-31.25 31.25c-17.231 0-31.25-14.019-31.25-31.25zm85.67 54.419c-1.221 1.221-2.82 1.831-4.42 1.831-1.599 0-3.199-.61-4.42-1.831l-23.852-23.852c3.415-2.433 6.406-5.423 8.839-8.839l23.852 23.852c2.441 2.441 2.441 6.398 0 8.839z" sketch:type="MSShapeGroup" fill-opacity=".9" fill="#fff"/></svg>