<?xml version="1.0" encoding="UTF-8" standalone="no"?>
<svg width="100px" height="100px" viewBox="0 0 100 100" version="1.1" xmlns="http://www.w3.org/2000/svg" xmlns:xlink="http://www.w3.org/1999/xlink" xmlns:sketch="http://www.bohemiancoding.com/sketch/ns">
    <!-- Generator: Sketch 3.0.4 (8054) - http://www.bohemiancoding.com/sketch -->
    <title>Shape</title>
    <desc>Created with Sketch.</desc>
    <defs></defs>
    <g id="Cards" stroke="none" stroke-width="1" fill="none" fill-rule="evenodd" sketch:type="MSPage">
        <g id="Card-—-Hover" sketch:type="MSArtboardGroup" transform="translate(-272.000000, -287.000000)" fill-opacity="0.9" fill="#FFFFFF">
            <path d="M368.339062,365.660938 L343.344922,340.666797 C345.6875,335.771484 347,330.289063 347,324.5 C347,303.789062 330.210156,287 309.5,287 C288.789062,287 272,303.789062 272,324.5 C272,345.210938 288.789062,362 309.5,362 C315.288281,362 320.771094,360.687109 325.667187,358.344531 L350.661328,383.338672 C353.101172,385.779687 356.301172,387 359.5,387 C362.698828,387 365.898047,385.779688 368.339062,383.338672 C373.220703,378.457031 373.220703,370.542188 368.339062,365.660938 L368.339062,365.660938 Z M278.25,324.499609 C278.25,307.268359 292.269141,293.249609 309.5,293.249609 C326.731641,293.249609 340.75,307.268359 340.75,324.499609 C340.75,341.730859 326.731641,355.749609 309.5,355.749609 C292.269141,355.749609 278.25,341.730859 278.25,324.499609 L278.25,324.499609 Z M363.919531,378.91875 C362.698828,380.139453 361.099609,380.749609 359.5,380.749609 C357.900781,380.749609 356.301172,380.139453 355.080469,378.91875 L331.228516,355.066406 C334.643359,352.633594 337.634766,349.643359 340.067188,346.227734 L363.919531,370.080078 C366.360156,372.521094 366.360156,376.478125 363.919531,378.91875 L363.919531,378.91875 Z" id="Shape" sketch:type="MSShapeGroup"></path>
        </g>
    </g>
</svg>